# xmcd
# 
# Track frame offsets:
#     150
#     17842
#     30072
#     44942
#     59147
#     75105
#     91380
#     105970
#     133172
#     159182
#     167770
#     180387
#     200635
#     216782
#     229275
#     240315
#     259940
#     276967
# 
# Disc length: 3895
# 
# Revision: 11
# Processed by: cddbd v1.5.2PL0 Copyright (c) Steve Scherf et al.
# Submitted via: fre:ac v1.0.31
# 
DISCID=ee0f3512
DTITLE=Various Artist - kantritund
DYEAR=2007
DGENRE=Folk
TTITLE0=Justament - Ilm on hukas
TTITLE1=Kukerpillid - Keegi ei tunne sind
TTITLE2=Folkmill - Oh, Juss!
TTITLE3=V‰ikeste Lııtspillide ‹hing - ‹ks lugu
TTITLE4=Beergrass - Laup‰eva ıhtu
TTITLE5=Los Desperados - Isemoodi elu
TTITLE6=Chicken band - Corrina, Corrine
TTITLE7=Joel Steinfeldt - Suur ja v‰ike vanker
TTITLE8=Silvi Vrait ja Kapell - Kivilinna kurb kauboi
TTITLE9=Kirekaku - Polka
TTITLE10=Tarmo Pihlap - Tuul
TTITLE11=Ott ja Beergrass - Ei siia majja t‰ismees j‰‰
TTITLE12=Karl Madis - Salasoov
TTITLE13=Rock Hotel - Preeria roos
TTITLE14=Untsakad - Laimjala pullilugu
TTITLE15=Tony Aare - Saab, saab (Vana Joe)
TTITLE16=MTJ - Veel mulle meenud
TTITLE17=Ummamuudu - Setokısı
EXTD=
EXTT0=
EXTT1=
EXTT2=
EXTT3=
EXTT4=
EXTT5=
EXTT6=
EXTT7=
EXTT8=
EXTT9=
EXTT10=
EXTT11=
EXTT12=
EXTT13=
EXTT14=
EXTT15=
EXTT16=
EXTT17=
PLAYORDER=
